<mxfile host="Electron" agent="Mozilla/5.0 (Windows NT 10.0; Win64; x64) AppleWebKit/537.36 (KHTML, like Gecko) draw.io/24.7.17 Chrome/128.0.6613.36 Electron/32.0.1 Safari/537.36" version="24.7.17">
  <diagram id="C5RBs43oDa-KdzZeNtuy" name="Page-1">
    <mxGraphModel dx="2227" dy="828" grid="0" gridSize="10" guides="1" tooltips="1" connect="1" arrows="1" fold="1" page="1" pageScale="1" pageWidth="827" pageHeight="1169" math="0" shadow="0">
      <root>
        <mxCell id="WIyWlLk6GJQsqaUBKTNV-0" />
        <mxCell id="WIyWlLk6GJQsqaUBKTNV-1" parent="WIyWlLk6GJQsqaUBKTNV-0" />
        <mxCell id="1M9hGgyov5NjB-ZIpMgV-0" value="Flowchart Program To Do List" style="text;html=1;align=center;verticalAlign=middle;resizable=0;points=[];autosize=1;strokeColor=none;fillColor=none;fontSize=26;fontStyle=1;fontFamily=Times New Roman;" parent="WIyWlLk6GJQsqaUBKTNV-1" vertex="1">
          <mxGeometry x="-106" y="44" width="340" height="40" as="geometry" />
        </mxCell>
        <mxCell id="1M9hGgyov5NjB-ZIpMgV-9" style="edgeStyle=orthogonalEdgeStyle;rounded=0;orthogonalLoop=1;jettySize=auto;html=1;entryX=0.5;entryY=0;entryDx=0;entryDy=0;" parent="WIyWlLk6GJQsqaUBKTNV-1" source="1M9hGgyov5NjB-ZIpMgV-5" target="1M9hGgyov5NjB-ZIpMgV-7" edge="1">
          <mxGeometry relative="1" as="geometry" />
        </mxCell>
        <mxCell id="1M9hGgyov5NjB-ZIpMgV-5" value="&lt;font style=&quot;font-size: 15px;&quot;&gt;Start&lt;/font&gt;" style="strokeWidth=2;html=1;shape=mxgraph.flowchart.terminator;whiteSpace=wrap;fillColor=#f5f5f5;strokeColor=#666666;fontColor=#333333;" parent="WIyWlLk6GJQsqaUBKTNV-1" vertex="1">
          <mxGeometry x="24" y="120" width="80" height="40" as="geometry" />
        </mxCell>
        <mxCell id="1M9hGgyov5NjB-ZIpMgV-6" value="&lt;font style=&quot;font-size: 15px;&quot;&gt;End&lt;/font&gt;" style="strokeWidth=2;html=1;shape=mxgraph.flowchart.terminator;whiteSpace=wrap;fillColor=#f5f5f5;strokeColor=#666666;fontColor=#333333;" parent="WIyWlLk6GJQsqaUBKTNV-1" vertex="1">
          <mxGeometry x="70" y="1337" width="80" height="40" as="geometry" />
        </mxCell>
        <mxCell id="1M9hGgyov5NjB-ZIpMgV-7" value="Menu Login" style="shape=parallelogram;html=1;strokeWidth=2;perimeter=parallelogramPerimeter;whiteSpace=wrap;rounded=1;arcSize=12;size=0.23;fillColor=#dae8fc;strokeColor=#6c8ebf;" parent="WIyWlLk6GJQsqaUBKTNV-1" vertex="1">
          <mxGeometry x="-1" y="200" width="130" height="50" as="geometry" />
        </mxCell>
        <mxCell id="1M9hGgyov5NjB-ZIpMgV-104" style="edgeStyle=orthogonalEdgeStyle;rounded=0;orthogonalLoop=1;jettySize=auto;html=1;" parent="WIyWlLk6GJQsqaUBKTNV-1" source="1M9hGgyov5NjB-ZIpMgV-10" target="1M9hGgyov5NjB-ZIpMgV-102" edge="1">
          <mxGeometry relative="1" as="geometry" />
        </mxCell>
        <mxCell id="1M9hGgyov5NjB-ZIpMgV-105" style="edgeStyle=orthogonalEdgeStyle;rounded=0;orthogonalLoop=1;jettySize=auto;html=1;entryX=0.5;entryY=0;entryDx=0;entryDy=0;" parent="WIyWlLk6GJQsqaUBKTNV-1" source="1M9hGgyov5NjB-ZIpMgV-10" target="1M9hGgyov5NjB-ZIpMgV-21" edge="1">
          <mxGeometry relative="1" as="geometry" />
        </mxCell>
        <mxCell id="1M9hGgyov5NjB-ZIpMgV-10" value="Sebagai Admin?" style="strokeWidth=2;html=1;shape=mxgraph.flowchart.decision;whiteSpace=wrap;fillColor=#ffe6cc;strokeColor=#d79b00;" parent="WIyWlLk6GJQsqaUBKTNV-1" vertex="1">
          <mxGeometry x="24" y="280" width="80" height="80" as="geometry" />
        </mxCell>
        <mxCell id="1M9hGgyov5NjB-ZIpMgV-11" style="edgeStyle=orthogonalEdgeStyle;rounded=0;orthogonalLoop=1;jettySize=auto;html=1;entryX=0.5;entryY=0;entryDx=0;entryDy=0;entryPerimeter=0;" parent="WIyWlLk6GJQsqaUBKTNV-1" source="1M9hGgyov5NjB-ZIpMgV-7" target="1M9hGgyov5NjB-ZIpMgV-10" edge="1">
          <mxGeometry relative="1" as="geometry" />
        </mxCell>
        <mxCell id="1M9hGgyov5NjB-ZIpMgV-15" value="No" style="text;html=1;align=center;verticalAlign=middle;resizable=0;points=[];autosize=1;strokeColor=none;fillColor=none;" parent="WIyWlLk6GJQsqaUBKTNV-1" vertex="1">
          <mxGeometry x="104" y="290" width="40" height="30" as="geometry" />
        </mxCell>
        <mxCell id="1M9hGgyov5NjB-ZIpMgV-25" value="" style="edgeStyle=orthogonalEdgeStyle;rounded=0;orthogonalLoop=1;jettySize=auto;html=1;" parent="WIyWlLk6GJQsqaUBKTNV-1" source="1M9hGgyov5NjB-ZIpMgV-21" target="1M9hGgyov5NjB-ZIpMgV-24" edge="1">
          <mxGeometry relative="1" as="geometry" />
        </mxCell>
        <mxCell id="1M9hGgyov5NjB-ZIpMgV-21" value="Input Login Admin" style="rounded=1;whiteSpace=wrap;html=1;absoluteArcSize=1;arcSize=14;strokeWidth=2;fillColor=#d5e8d4;strokeColor=#82b366;" parent="WIyWlLk6GJQsqaUBKTNV-1" vertex="1">
          <mxGeometry x="-115" y="391" width="90" height="40" as="geometry" />
        </mxCell>
        <mxCell id="1M9hGgyov5NjB-ZIpMgV-28" value="" style="edgeStyle=orthogonalEdgeStyle;rounded=0;orthogonalLoop=1;jettySize=auto;html=1;" parent="WIyWlLk6GJQsqaUBKTNV-1" source="1M9hGgyov5NjB-ZIpMgV-24" target="1M9hGgyov5NjB-ZIpMgV-26" edge="1">
          <mxGeometry relative="1" as="geometry" />
        </mxCell>
        <mxCell id="1M9hGgyov5NjB-ZIpMgV-91" style="edgeStyle=orthogonalEdgeStyle;rounded=0;orthogonalLoop=1;jettySize=auto;html=1;entryX=0.5;entryY=0;entryDx=0;entryDy=0;" parent="WIyWlLk6GJQsqaUBKTNV-1" source="1M9hGgyov5NjB-ZIpMgV-24" target="1M9hGgyov5NjB-ZIpMgV-31" edge="1">
          <mxGeometry relative="1" as="geometry" />
        </mxCell>
        <mxCell id="1M9hGgyov5NjB-ZIpMgV-24" value="Login Berhasil?" style="strokeWidth=2;html=1;shape=mxgraph.flowchart.decision;whiteSpace=wrap;fillColor=#ffe6cc;strokeColor=#d79b00;" parent="WIyWlLk6GJQsqaUBKTNV-1" vertex="1">
          <mxGeometry x="-110" y="481" width="80" height="80" as="geometry" />
        </mxCell>
        <mxCell id="1M9hGgyov5NjB-ZIpMgV-112" value="" style="edgeStyle=orthogonalEdgeStyle;rounded=0;orthogonalLoop=1;jettySize=auto;html=1;" parent="WIyWlLk6GJQsqaUBKTNV-1" source="1M9hGgyov5NjB-ZIpMgV-26" target="1M9hGgyov5NjB-ZIpMgV-111" edge="1">
          <mxGeometry relative="1" as="geometry" />
        </mxCell>
        <mxCell id="1M9hGgyov5NjB-ZIpMgV-26" value="Gagal login sebagai admin" style="shape=parallelogram;html=1;strokeWidth=2;perimeter=parallelogramPerimeter;whiteSpace=wrap;rounded=1;arcSize=12;size=0.23;fontSize=12;fillColor=#dae8fc;strokeColor=#6c8ebf;" parent="WIyWlLk6GJQsqaUBKTNV-1" vertex="1">
          <mxGeometry x="-360" y="499.75" width="210" height="42.5" as="geometry" />
        </mxCell>
        <mxCell id="1M9hGgyov5NjB-ZIpMgV-29" value="No" style="text;html=1;align=center;verticalAlign=middle;resizable=0;points=[];autosize=1;strokeColor=none;fillColor=none;" parent="WIyWlLk6GJQsqaUBKTNV-1" vertex="1">
          <mxGeometry x="-140" y="496" width="40" height="30" as="geometry" />
        </mxCell>
        <mxCell id="m38rGPqU60XYRcg4cqw9-11" style="edgeStyle=orthogonalEdgeStyle;rounded=0;orthogonalLoop=1;jettySize=auto;html=1;entryX=0.5;entryY=0;entryDx=0;entryDy=0;" edge="1" parent="WIyWlLk6GJQsqaUBKTNV-1" source="1M9hGgyov5NjB-ZIpMgV-31" target="m38rGPqU60XYRcg4cqw9-7">
          <mxGeometry relative="1" as="geometry" />
        </mxCell>
        <mxCell id="1M9hGgyov5NjB-ZIpMgV-31" value="Menu To Do&lt;div&gt;List&amp;nbsp;&lt;span style=&quot;background-color: initial;&quot;&gt;Admin&lt;/span&gt;&lt;/div&gt;" style="shape=parallelogram;html=1;strokeWidth=2;perimeter=parallelogramPerimeter;whiteSpace=wrap;rounded=1;arcSize=12;size=0.23;fontSize=12;fillColor=#dae8fc;strokeColor=#6c8ebf;" parent="WIyWlLk6GJQsqaUBKTNV-1" vertex="1">
          <mxGeometry x="-135.5" y="615" width="131" height="42.5" as="geometry" />
        </mxCell>
        <mxCell id="1M9hGgyov5NjB-ZIpMgV-60" value="" style="edgeStyle=orthogonalEdgeStyle;rounded=0;orthogonalLoop=1;jettySize=auto;html=1;" parent="WIyWlLk6GJQsqaUBKTNV-1" source="1M9hGgyov5NjB-ZIpMgV-54" target="1M9hGgyov5NjB-ZIpMgV-59" edge="1">
          <mxGeometry relative="1" as="geometry" />
        </mxCell>
        <mxCell id="1M9hGgyov5NjB-ZIpMgV-63" value="" style="edgeStyle=orthogonalEdgeStyle;rounded=0;orthogonalLoop=1;jettySize=auto;html=1;" parent="WIyWlLk6GJQsqaUBKTNV-1" source="1M9hGgyov5NjB-ZIpMgV-54" target="1M9hGgyov5NjB-ZIpMgV-62" edge="1">
          <mxGeometry relative="1" as="geometry" />
        </mxCell>
        <mxCell id="1M9hGgyov5NjB-ZIpMgV-54" value="Tambah Tugas" style="strokeWidth=2;html=1;shape=mxgraph.flowchart.decision;whiteSpace=wrap;fillColor=#ffe6cc;strokeColor=#d79b00;" parent="WIyWlLk6GJQsqaUBKTNV-1" vertex="1">
          <mxGeometry x="-110" y="822" width="80" height="80" as="geometry" />
        </mxCell>
        <mxCell id="m38rGPqU60XYRcg4cqw9-2" style="edgeStyle=orthogonalEdgeStyle;rounded=0;orthogonalLoop=1;jettySize=auto;html=1;endArrow=none;endFill=0;" edge="1" parent="WIyWlLk6GJQsqaUBKTNV-1" source="1M9hGgyov5NjB-ZIpMgV-59">
          <mxGeometry relative="1" as="geometry">
            <mxPoint x="-360" y="862" as="targetPoint" />
          </mxGeometry>
        </mxCell>
        <mxCell id="1M9hGgyov5NjB-ZIpMgV-59" value="Menambahkan tugas&lt;div&gt;&lt;span style=&quot;background-color: initial;&quot;&gt;ke dalam data&lt;/span&gt;&lt;/div&gt;" style="rounded=1;whiteSpace=wrap;html=1;absoluteArcSize=1;arcSize=14;strokeWidth=2;fillColor=#d5e8d4;strokeColor=#82b366;" parent="WIyWlLk6GJQsqaUBKTNV-1" vertex="1">
          <mxGeometry x="-290" y="842" width="130" height="40" as="geometry" />
        </mxCell>
        <mxCell id="1M9hGgyov5NjB-ZIpMgV-65" value="" style="edgeStyle=orthogonalEdgeStyle;rounded=0;orthogonalLoop=1;jettySize=auto;html=1;" parent="WIyWlLk6GJQsqaUBKTNV-1" source="1M9hGgyov5NjB-ZIpMgV-62" target="1M9hGgyov5NjB-ZIpMgV-64" edge="1">
          <mxGeometry relative="1" as="geometry" />
        </mxCell>
        <mxCell id="1M9hGgyov5NjB-ZIpMgV-70" value="" style="edgeStyle=orthogonalEdgeStyle;rounded=0;orthogonalLoop=1;jettySize=auto;html=1;" parent="WIyWlLk6GJQsqaUBKTNV-1" source="1M9hGgyov5NjB-ZIpMgV-62" target="1M9hGgyov5NjB-ZIpMgV-69" edge="1">
          <mxGeometry relative="1" as="geometry" />
        </mxCell>
        <mxCell id="1M9hGgyov5NjB-ZIpMgV-62" value="Tampilkan Tugas" style="strokeWidth=2;html=1;shape=mxgraph.flowchart.decision;whiteSpace=wrap;fillColor=#ffe6cc;strokeColor=#d79b00;" parent="WIyWlLk6GJQsqaUBKTNV-1" vertex="1">
          <mxGeometry x="-110" y="942" width="80" height="80" as="geometry" />
        </mxCell>
        <mxCell id="m38rGPqU60XYRcg4cqw9-3" style="edgeStyle=orthogonalEdgeStyle;rounded=0;orthogonalLoop=1;jettySize=auto;html=1;endArrow=none;endFill=0;" edge="1" parent="WIyWlLk6GJQsqaUBKTNV-1" source="1M9hGgyov5NjB-ZIpMgV-64">
          <mxGeometry relative="1" as="geometry">
            <mxPoint x="-360" y="981.9999999999998" as="targetPoint" />
          </mxGeometry>
        </mxCell>
        <mxCell id="1M9hGgyov5NjB-ZIpMgV-64" value="Menampilkan isi data" style="shape=parallelogram;html=1;strokeWidth=2;perimeter=parallelogramPerimeter;whiteSpace=wrap;rounded=1;arcSize=12;size=0.23;fontSize=12;fillColor=#dae8fc;strokeColor=#6c8ebf;" parent="WIyWlLk6GJQsqaUBKTNV-1" vertex="1">
          <mxGeometry x="-315" y="964.1899999999999" width="180" height="35.62" as="geometry" />
        </mxCell>
        <mxCell id="1M9hGgyov5NjB-ZIpMgV-72" value="" style="edgeStyle=orthogonalEdgeStyle;rounded=0;orthogonalLoop=1;jettySize=auto;html=1;" parent="WIyWlLk6GJQsqaUBKTNV-1" source="1M9hGgyov5NjB-ZIpMgV-69" target="1M9hGgyov5NjB-ZIpMgV-71" edge="1">
          <mxGeometry relative="1" as="geometry" />
        </mxCell>
        <mxCell id="1M9hGgyov5NjB-ZIpMgV-83" value="" style="edgeStyle=orthogonalEdgeStyle;rounded=0;orthogonalLoop=1;jettySize=auto;html=1;" parent="WIyWlLk6GJQsqaUBKTNV-1" source="1M9hGgyov5NjB-ZIpMgV-69" target="1M9hGgyov5NjB-ZIpMgV-80" edge="1">
          <mxGeometry relative="1" as="geometry" />
        </mxCell>
        <mxCell id="1M9hGgyov5NjB-ZIpMgV-69" value="Ubah&lt;div&gt;Tugas&lt;/div&gt;" style="strokeWidth=2;html=1;shape=mxgraph.flowchart.decision;whiteSpace=wrap;fillColor=#ffe6cc;strokeColor=#d79b00;" parent="WIyWlLk6GJQsqaUBKTNV-1" vertex="1">
          <mxGeometry x="-110" y="1062" width="80" height="80" as="geometry" />
        </mxCell>
        <mxCell id="m38rGPqU60XYRcg4cqw9-4" style="edgeStyle=orthogonalEdgeStyle;rounded=0;orthogonalLoop=1;jettySize=auto;html=1;endArrow=none;endFill=0;" edge="1" parent="WIyWlLk6GJQsqaUBKTNV-1" source="1M9hGgyov5NjB-ZIpMgV-71">
          <mxGeometry relative="1" as="geometry">
            <mxPoint x="-360" y="1102" as="targetPoint" />
          </mxGeometry>
        </mxCell>
        <mxCell id="1M9hGgyov5NjB-ZIpMgV-71" value="Mengubah tugas yang sudah ada di dalam data" style="rounded=1;whiteSpace=wrap;html=1;absoluteArcSize=1;arcSize=14;strokeWidth=2;fillColor=#d5e8d4;strokeColor=#82b366;" parent="WIyWlLk6GJQsqaUBKTNV-1" vertex="1">
          <mxGeometry x="-295" y="1082" width="140" height="40" as="geometry" />
        </mxCell>
        <mxCell id="1M9hGgyov5NjB-ZIpMgV-84" value="" style="edgeStyle=orthogonalEdgeStyle;rounded=0;orthogonalLoop=1;jettySize=auto;html=1;" parent="WIyWlLk6GJQsqaUBKTNV-1" source="1M9hGgyov5NjB-ZIpMgV-80" target="1M9hGgyov5NjB-ZIpMgV-81" edge="1">
          <mxGeometry relative="1" as="geometry" />
        </mxCell>
        <mxCell id="1M9hGgyov5NjB-ZIpMgV-100" value="" style="edgeStyle=orthogonalEdgeStyle;rounded=0;orthogonalLoop=1;jettySize=auto;html=1;" parent="WIyWlLk6GJQsqaUBKTNV-1" source="1M9hGgyov5NjB-ZIpMgV-80" target="1M9hGgyov5NjB-ZIpMgV-99" edge="1">
          <mxGeometry relative="1" as="geometry" />
        </mxCell>
        <mxCell id="1M9hGgyov5NjB-ZIpMgV-80" value="Hapus&lt;div&gt;Tugas&lt;/div&gt;" style="strokeWidth=2;html=1;shape=mxgraph.flowchart.decision;whiteSpace=wrap;fillColor=#ffe6cc;strokeColor=#d79b00;" parent="WIyWlLk6GJQsqaUBKTNV-1" vertex="1">
          <mxGeometry x="-110" y="1182" width="80" height="80" as="geometry" />
        </mxCell>
        <mxCell id="m38rGPqU60XYRcg4cqw9-5" style="edgeStyle=orthogonalEdgeStyle;rounded=0;orthogonalLoop=1;jettySize=auto;html=1;endArrow=none;endFill=0;" edge="1" parent="WIyWlLk6GJQsqaUBKTNV-1" source="1M9hGgyov5NjB-ZIpMgV-81">
          <mxGeometry relative="1" as="geometry">
            <mxPoint x="-360" y="1222" as="targetPoint" />
          </mxGeometry>
        </mxCell>
        <mxCell id="1M9hGgyov5NjB-ZIpMgV-81" value="Menghapus tugas yang sudah ada di dalam data" style="rounded=1;whiteSpace=wrap;html=1;absoluteArcSize=1;arcSize=14;strokeWidth=2;fillColor=#d5e8d4;strokeColor=#82b366;" parent="WIyWlLk6GJQsqaUBKTNV-1" vertex="1">
          <mxGeometry x="-295" y="1202" width="140" height="40" as="geometry" />
        </mxCell>
        <mxCell id="1M9hGgyov5NjB-ZIpMgV-85" value="Yes" style="text;html=1;align=center;verticalAlign=middle;resizable=0;points=[];autosize=1;strokeColor=none;fillColor=none;" parent="WIyWlLk6GJQsqaUBKTNV-1" vertex="1">
          <mxGeometry x="-16" y="290" width="40" height="30" as="geometry" />
        </mxCell>
        <mxCell id="1M9hGgyov5NjB-ZIpMgV-90" value="Yes" style="text;html=1;align=center;verticalAlign=middle;resizable=0;points=[];autosize=1;strokeColor=none;fillColor=none;" parent="WIyWlLk6GJQsqaUBKTNV-1" vertex="1">
          <mxGeometry x="-70" y="561" width="40" height="30" as="geometry" />
        </mxCell>
        <mxCell id="1M9hGgyov5NjB-ZIpMgV-92" value="Yes" style="text;html=1;align=center;verticalAlign=middle;resizable=0;points=[];autosize=1;strokeColor=none;fillColor=none;" parent="WIyWlLk6GJQsqaUBKTNV-1" vertex="1">
          <mxGeometry x="-146" y="835" width="40" height="30" as="geometry" />
        </mxCell>
        <mxCell id="1M9hGgyov5NjB-ZIpMgV-93" value="Yes" style="text;html=1;align=center;verticalAlign=middle;resizable=0;points=[];autosize=1;strokeColor=none;fillColor=none;" parent="WIyWlLk6GJQsqaUBKTNV-1" vertex="1">
          <mxGeometry x="-140" y="955" width="40" height="30" as="geometry" />
        </mxCell>
        <mxCell id="1M9hGgyov5NjB-ZIpMgV-94" value="No" style="text;html=1;align=center;verticalAlign=middle;resizable=0;points=[];autosize=1;strokeColor=none;fillColor=none;" parent="WIyWlLk6GJQsqaUBKTNV-1" vertex="1">
          <mxGeometry x="-70" y="898" width="40" height="30" as="geometry" />
        </mxCell>
        <mxCell id="1M9hGgyov5NjB-ZIpMgV-95" value="No" style="text;html=1;align=center;verticalAlign=middle;resizable=0;points=[];autosize=1;strokeColor=none;fillColor=none;" parent="WIyWlLk6GJQsqaUBKTNV-1" vertex="1">
          <mxGeometry x="-70" y="1022" width="40" height="30" as="geometry" />
        </mxCell>
        <mxCell id="1M9hGgyov5NjB-ZIpMgV-96" value="No" style="text;html=1;align=center;verticalAlign=middle;resizable=0;points=[];autosize=1;strokeColor=none;fillColor=none;" parent="WIyWlLk6GJQsqaUBKTNV-1" vertex="1">
          <mxGeometry x="-70" y="1142" width="40" height="30" as="geometry" />
        </mxCell>
        <mxCell id="1M9hGgyov5NjB-ZIpMgV-97" value="Yes" style="text;html=1;align=center;verticalAlign=middle;resizable=0;points=[];autosize=1;strokeColor=none;fillColor=none;" parent="WIyWlLk6GJQsqaUBKTNV-1" vertex="1">
          <mxGeometry x="-145" y="1072" width="40" height="30" as="geometry" />
        </mxCell>
        <mxCell id="1M9hGgyov5NjB-ZIpMgV-98" value="Yes" style="text;html=1;align=center;verticalAlign=middle;resizable=0;points=[];autosize=1;strokeColor=none;fillColor=none;" parent="WIyWlLk6GJQsqaUBKTNV-1" vertex="1">
          <mxGeometry x="-146" y="1193" width="40" height="30" as="geometry" />
        </mxCell>
        <mxCell id="m38rGPqU60XYRcg4cqw9-0" style="edgeStyle=orthogonalEdgeStyle;rounded=0;orthogonalLoop=1;jettySize=auto;html=1;" edge="1" parent="WIyWlLk6GJQsqaUBKTNV-1" source="1M9hGgyov5NjB-ZIpMgV-99" target="1M9hGgyov5NjB-ZIpMgV-31">
          <mxGeometry relative="1" as="geometry">
            <mxPoint x="-360" y="638.07998046875" as="targetPoint" />
            <Array as="points">
              <mxPoint x="-360" y="1357" />
              <mxPoint x="-360" y="636" />
            </Array>
          </mxGeometry>
        </mxCell>
        <mxCell id="1M9hGgyov5NjB-ZIpMgV-99" value="Keluar&lt;div&gt;Program&lt;/div&gt;" style="strokeWidth=2;html=1;shape=mxgraph.flowchart.decision;whiteSpace=wrap;fillColor=#ffe6cc;strokeColor=#d79b00;" parent="WIyWlLk6GJQsqaUBKTNV-1" vertex="1">
          <mxGeometry x="-110" y="1317" width="80" height="80" as="geometry" />
        </mxCell>
        <mxCell id="1M9hGgyov5NjB-ZIpMgV-107" value="" style="edgeStyle=orthogonalEdgeStyle;rounded=0;orthogonalLoop=1;jettySize=auto;html=1;" parent="WIyWlLk6GJQsqaUBKTNV-1" source="1M9hGgyov5NjB-ZIpMgV-102" target="1M9hGgyov5NjB-ZIpMgV-106" edge="1">
          <mxGeometry relative="1" as="geometry" />
        </mxCell>
        <mxCell id="1M9hGgyov5NjB-ZIpMgV-102" value="Registrasi user" style="rounded=1;whiteSpace=wrap;html=1;absoluteArcSize=1;arcSize=14;strokeWidth=2;fillColor=#d5e8d4;strokeColor=#82b366;" parent="WIyWlLk6GJQsqaUBKTNV-1" vertex="1">
          <mxGeometry x="180" y="300" width="100" height="40" as="geometry" />
        </mxCell>
        <mxCell id="1M9hGgyov5NjB-ZIpMgV-109" value="" style="edgeStyle=orthogonalEdgeStyle;rounded=0;orthogonalLoop=1;jettySize=auto;html=1;" parent="WIyWlLk6GJQsqaUBKTNV-1" source="1M9hGgyov5NjB-ZIpMgV-106" target="1M9hGgyov5NjB-ZIpMgV-108" edge="1">
          <mxGeometry relative="1" as="geometry" />
        </mxCell>
        <mxCell id="1M9hGgyov5NjB-ZIpMgV-106" value="Input Login&lt;div&gt;user&lt;/div&gt;" style="rounded=1;whiteSpace=wrap;html=1;absoluteArcSize=1;arcSize=14;strokeWidth=2;fillColor=#d5e8d4;strokeColor=#82b366;" parent="WIyWlLk6GJQsqaUBKTNV-1" vertex="1">
          <mxGeometry x="185" y="391" width="90" height="40" as="geometry" />
        </mxCell>
        <mxCell id="1M9hGgyov5NjB-ZIpMgV-119" value="" style="edgeStyle=orthogonalEdgeStyle;rounded=0;orthogonalLoop=1;jettySize=auto;html=1;" parent="WIyWlLk6GJQsqaUBKTNV-1" source="1M9hGgyov5NjB-ZIpMgV-108" target="1M9hGgyov5NjB-ZIpMgV-118" edge="1">
          <mxGeometry relative="1" as="geometry" />
        </mxCell>
        <mxCell id="1M9hGgyov5NjB-ZIpMgV-173" style="edgeStyle=orthogonalEdgeStyle;rounded=0;orthogonalLoop=1;jettySize=auto;html=1;entryX=0.5;entryY=0;entryDx=0;entryDy=0;" parent="WIyWlLk6GJQsqaUBKTNV-1" source="1M9hGgyov5NjB-ZIpMgV-108" target="1M9hGgyov5NjB-ZIpMgV-156" edge="1">
          <mxGeometry relative="1" as="geometry" />
        </mxCell>
        <mxCell id="1M9hGgyov5NjB-ZIpMgV-108" value="Login Berhasil?" style="strokeWidth=2;html=1;shape=mxgraph.flowchart.decision;whiteSpace=wrap;fillColor=#ffe6cc;strokeColor=#d79b00;" parent="WIyWlLk6GJQsqaUBKTNV-1" vertex="1">
          <mxGeometry x="190" y="481" width="80" height="80" as="geometry" />
        </mxCell>
        <mxCell id="1M9hGgyov5NjB-ZIpMgV-113" value="" style="edgeStyle=orthogonalEdgeStyle;rounded=0;orthogonalLoop=1;jettySize=auto;html=1;" parent="WIyWlLk6GJQsqaUBKTNV-1" source="1M9hGgyov5NjB-ZIpMgV-111" target="1M9hGgyov5NjB-ZIpMgV-21" edge="1">
          <mxGeometry relative="1" as="geometry" />
        </mxCell>
        <mxCell id="1M9hGgyov5NjB-ZIpMgV-115" style="edgeStyle=orthogonalEdgeStyle;rounded=0;orthogonalLoop=1;jettySize=auto;html=1;entryX=0.085;entryY=0.6;entryDx=0;entryDy=0;entryPerimeter=0;" parent="WIyWlLk6GJQsqaUBKTNV-1" source="1M9hGgyov5NjB-ZIpMgV-111" target="1M9hGgyov5NjB-ZIpMgV-7" edge="1">
          <mxGeometry relative="1" as="geometry">
            <mxPoint x="-255" y="220" as="targetPoint" />
            <Array as="points">
              <mxPoint x="-255" y="230" />
            </Array>
          </mxGeometry>
        </mxCell>
        <mxCell id="1M9hGgyov5NjB-ZIpMgV-111" value="Lanjut login&lt;div&gt;sebagai&lt;/div&gt;&lt;div&gt;admin?&lt;/div&gt;" style="strokeWidth=2;html=1;shape=mxgraph.flowchart.decision;whiteSpace=wrap;fillColor=#ffe6cc;strokeColor=#d79b00;" parent="WIyWlLk6GJQsqaUBKTNV-1" vertex="1">
          <mxGeometry x="-307.5" y="365.5" width="105" height="91" as="geometry" />
        </mxCell>
        <mxCell id="1M9hGgyov5NjB-ZIpMgV-116" value="No" style="text;html=1;align=center;verticalAlign=middle;resizable=0;points=[];autosize=1;strokeColor=none;fillColor=none;" parent="WIyWlLk6GJQsqaUBKTNV-1" vertex="1">
          <mxGeometry x="-295" y="335.5" width="40" height="30" as="geometry" />
        </mxCell>
        <mxCell id="1M9hGgyov5NjB-ZIpMgV-117" value="Yes" style="text;html=1;align=center;verticalAlign=middle;resizable=0;points=[];autosize=1;strokeColor=none;fillColor=none;" parent="WIyWlLk6GJQsqaUBKTNV-1" vertex="1">
          <mxGeometry x="-202.5" y="380" width="40" height="30" as="geometry" />
        </mxCell>
        <mxCell id="1M9hGgyov5NjB-ZIpMgV-121" style="edgeStyle=orthogonalEdgeStyle;rounded=0;orthogonalLoop=1;jettySize=auto;html=1;entryX=1;entryY=0.5;entryDx=0;entryDy=0;" parent="WIyWlLk6GJQsqaUBKTNV-1" source="1M9hGgyov5NjB-ZIpMgV-118" target="1M9hGgyov5NjB-ZIpMgV-106" edge="1">
          <mxGeometry relative="1" as="geometry">
            <mxPoint x="435" y="410" as="targetPoint" />
            <Array as="points">
              <mxPoint x="435" y="411" />
            </Array>
          </mxGeometry>
        </mxCell>
        <mxCell id="1M9hGgyov5NjB-ZIpMgV-118" value="Gagal login sebagai user" style="shape=parallelogram;html=1;strokeWidth=2;perimeter=parallelogramPerimeter;whiteSpace=wrap;rounded=1;arcSize=12;size=0.23;fontSize=12;fillColor=#dae8fc;strokeColor=#6c8ebf;" parent="WIyWlLk6GJQsqaUBKTNV-1" vertex="1">
          <mxGeometry x="330" y="499.75" width="210" height="42.5" as="geometry" />
        </mxCell>
        <mxCell id="1M9hGgyov5NjB-ZIpMgV-122" value="No" style="text;html=1;align=center;verticalAlign=middle;resizable=0;points=[];autosize=1;strokeColor=none;fillColor=none;" parent="WIyWlLk6GJQsqaUBKTNV-1" vertex="1">
          <mxGeometry x="270" y="490" width="40" height="30" as="geometry" />
        </mxCell>
        <mxCell id="m38rGPqU60XYRcg4cqw9-8" style="edgeStyle=orthogonalEdgeStyle;rounded=0;orthogonalLoop=1;jettySize=auto;html=1;entryX=0.5;entryY=0;entryDx=0;entryDy=0;" edge="1" parent="WIyWlLk6GJQsqaUBKTNV-1" source="1M9hGgyov5NjB-ZIpMgV-156" target="m38rGPqU60XYRcg4cqw9-6">
          <mxGeometry relative="1" as="geometry" />
        </mxCell>
        <mxCell id="1M9hGgyov5NjB-ZIpMgV-156" value="Menu To Do&lt;div&gt;List User&lt;/div&gt;" style="shape=parallelogram;html=1;strokeWidth=2;perimeter=parallelogramPerimeter;whiteSpace=wrap;rounded=1;arcSize=12;size=0.23;fontSize=12;fillColor=#dae8fc;strokeColor=#6c8ebf;" parent="WIyWlLk6GJQsqaUBKTNV-1" vertex="1">
          <mxGeometry x="164.5" y="615" width="131" height="42.5" as="geometry" />
        </mxCell>
        <mxCell id="1M9hGgyov5NjB-ZIpMgV-157" value="" style="edgeStyle=orthogonalEdgeStyle;rounded=0;orthogonalLoop=1;jettySize=auto;html=1;" parent="WIyWlLk6GJQsqaUBKTNV-1" source="1M9hGgyov5NjB-ZIpMgV-158" target="1M9hGgyov5NjB-ZIpMgV-162" edge="1">
          <mxGeometry relative="1" as="geometry" />
        </mxCell>
        <mxCell id="1M9hGgyov5NjB-ZIpMgV-178" value="" style="edgeStyle=orthogonalEdgeStyle;rounded=0;orthogonalLoop=1;jettySize=auto;html=1;" parent="WIyWlLk6GJQsqaUBKTNV-1" source="1M9hGgyov5NjB-ZIpMgV-158" target="1M9hGgyov5NjB-ZIpMgV-176" edge="1">
          <mxGeometry relative="1" as="geometry" />
        </mxCell>
        <mxCell id="1M9hGgyov5NjB-ZIpMgV-158" value="Tambah Tugas" style="strokeWidth=2;html=1;shape=mxgraph.flowchart.decision;whiteSpace=wrap;fillColor=#ffe6cc;strokeColor=#d79b00;" parent="WIyWlLk6GJQsqaUBKTNV-1" vertex="1">
          <mxGeometry x="190" y="822" width="80" height="80" as="geometry" />
        </mxCell>
        <mxCell id="1M9hGgyov5NjB-ZIpMgV-174" value="" style="edgeStyle=orthogonalEdgeStyle;rounded=0;orthogonalLoop=1;jettySize=auto;html=1;" parent="WIyWlLk6GJQsqaUBKTNV-1" source="1M9hGgyov5NjB-ZIpMgV-162" target="1M9hGgyov5NjB-ZIpMgV-171" edge="1">
          <mxGeometry relative="1" as="geometry" />
        </mxCell>
        <mxCell id="1M9hGgyov5NjB-ZIpMgV-179" value="" style="edgeStyle=orthogonalEdgeStyle;rounded=0;orthogonalLoop=1;jettySize=auto;html=1;" parent="WIyWlLk6GJQsqaUBKTNV-1" source="1M9hGgyov5NjB-ZIpMgV-162" target="1M9hGgyov5NjB-ZIpMgV-177" edge="1">
          <mxGeometry relative="1" as="geometry" />
        </mxCell>
        <mxCell id="1M9hGgyov5NjB-ZIpMgV-162" value="Tampilkan Tugas" style="strokeWidth=2;html=1;shape=mxgraph.flowchart.decision;whiteSpace=wrap;fillColor=#ffe6cc;strokeColor=#d79b00;" parent="WIyWlLk6GJQsqaUBKTNV-1" vertex="1">
          <mxGeometry x="190" y="942" width="80" height="80" as="geometry" />
        </mxCell>
        <mxCell id="1M9hGgyov5NjB-ZIpMgV-167" value="Yes" style="text;html=1;align=center;verticalAlign=middle;resizable=0;points=[];autosize=1;strokeColor=none;fillColor=none;" parent="WIyWlLk6GJQsqaUBKTNV-1" vertex="1">
          <mxGeometry x="270" y="835" width="40" height="30" as="geometry" />
        </mxCell>
        <mxCell id="1M9hGgyov5NjB-ZIpMgV-168" value="No" style="text;html=1;align=center;verticalAlign=middle;resizable=0;points=[];autosize=1;strokeColor=none;fillColor=none;" parent="WIyWlLk6GJQsqaUBKTNV-1" vertex="1">
          <mxGeometry x="192.25" y="898" width="40" height="30" as="geometry" />
        </mxCell>
        <mxCell id="1M9hGgyov5NjB-ZIpMgV-169" value="No" style="text;html=1;align=center;verticalAlign=middle;resizable=0;points=[];autosize=1;strokeColor=none;fillColor=none;" parent="WIyWlLk6GJQsqaUBKTNV-1" vertex="1">
          <mxGeometry x="192.25" y="1022" width="40" height="30" as="geometry" />
        </mxCell>
        <mxCell id="1M9hGgyov5NjB-ZIpMgV-189" style="edgeStyle=orthogonalEdgeStyle;rounded=0;orthogonalLoop=1;jettySize=auto;html=1;entryX=1;entryY=0.5;entryDx=0;entryDy=0;entryPerimeter=0;" parent="WIyWlLk6GJQsqaUBKTNV-1" source="1M9hGgyov5NjB-ZIpMgV-171" target="1M9hGgyov5NjB-ZIpMgV-6" edge="1">
          <mxGeometry relative="1" as="geometry">
            <mxPoint x="230" y="1357.888943142361" as="targetPoint" />
            <Array as="points">
              <mxPoint x="230" y="1357" />
            </Array>
          </mxGeometry>
        </mxCell>
        <mxCell id="1M9hGgyov5NjB-ZIpMgV-171" value="Keluar&lt;div&gt;Program&lt;/div&gt;" style="strokeWidth=2;html=1;shape=mxgraph.flowchart.decision;whiteSpace=wrap;fillColor=#ffe6cc;strokeColor=#d79b00;" parent="WIyWlLk6GJQsqaUBKTNV-1" vertex="1">
          <mxGeometry x="190" y="1062" width="80" height="80" as="geometry" />
        </mxCell>
        <mxCell id="1M9hGgyov5NjB-ZIpMgV-175" value="No" style="text;html=1;align=center;verticalAlign=middle;resizable=0;points=[];autosize=1;strokeColor=none;fillColor=none;" parent="WIyWlLk6GJQsqaUBKTNV-1" vertex="1">
          <mxGeometry x="-70" y="1257" width="40" height="30" as="geometry" />
        </mxCell>
        <mxCell id="1M9hGgyov5NjB-ZIpMgV-182" style="edgeStyle=orthogonalEdgeStyle;rounded=0;orthogonalLoop=1;jettySize=auto;html=1;endArrow=none;endFill=0;" parent="WIyWlLk6GJQsqaUBKTNV-1" edge="1">
          <mxGeometry relative="1" as="geometry">
            <mxPoint x="560" y="861.75" as="targetPoint" />
            <mxPoint x="450" y="861.75" as="sourcePoint" />
          </mxGeometry>
        </mxCell>
        <mxCell id="1M9hGgyov5NjB-ZIpMgV-176" value="Menambahkan tugas&lt;div&gt;&lt;span style=&quot;background-color: initial;&quot;&gt;ke dalam data&lt;/span&gt;&lt;/div&gt;" style="rounded=1;whiteSpace=wrap;html=1;absoluteArcSize=1;arcSize=14;strokeWidth=2;fillColor=#d5e8d4;strokeColor=#82b366;" parent="WIyWlLk6GJQsqaUBKTNV-1" vertex="1">
          <mxGeometry x="330" y="842" width="130" height="40" as="geometry" />
        </mxCell>
        <mxCell id="1M9hGgyov5NjB-ZIpMgV-180" style="edgeStyle=orthogonalEdgeStyle;rounded=0;orthogonalLoop=1;jettySize=auto;html=1;entryX=1;entryY=0.75;entryDx=0;entryDy=0;exitX=1;exitY=0.5;exitDx=0;exitDy=0;exitPerimeter=0;" parent="WIyWlLk6GJQsqaUBKTNV-1" source="1M9hGgyov5NjB-ZIpMgV-171" target="1M9hGgyov5NjB-ZIpMgV-156" edge="1">
          <mxGeometry relative="1" as="geometry">
            <mxPoint x="560" y="630" as="targetPoint" />
            <Array as="points">
              <mxPoint x="560" y="1102" />
              <mxPoint x="560" y="644" />
            </Array>
          </mxGeometry>
        </mxCell>
        <mxCell id="1M9hGgyov5NjB-ZIpMgV-204" style="edgeStyle=orthogonalEdgeStyle;rounded=0;orthogonalLoop=1;jettySize=auto;html=1;endArrow=none;endFill=0;" parent="WIyWlLk6GJQsqaUBKTNV-1" source="1M9hGgyov5NjB-ZIpMgV-177" edge="1">
          <mxGeometry relative="1" as="geometry">
            <mxPoint x="560" y="982" as="targetPoint" />
          </mxGeometry>
        </mxCell>
        <mxCell id="1M9hGgyov5NjB-ZIpMgV-177" value="Menampilkan isi data" style="shape=parallelogram;html=1;strokeWidth=2;perimeter=parallelogramPerimeter;whiteSpace=wrap;rounded=1;arcSize=12;size=0.23;fontSize=12;fillColor=#dae8fc;strokeColor=#6c8ebf;" parent="WIyWlLk6GJQsqaUBKTNV-1" vertex="1">
          <mxGeometry x="310" y="964.1899999999999" width="180" height="35.62" as="geometry" />
        </mxCell>
        <mxCell id="1M9hGgyov5NjB-ZIpMgV-183" value="Yes" style="text;html=1;align=center;verticalAlign=middle;resizable=0;points=[];autosize=1;strokeColor=none;fillColor=none;" parent="WIyWlLk6GJQsqaUBKTNV-1" vertex="1">
          <mxGeometry x="270" y="955" width="40" height="30" as="geometry" />
        </mxCell>
        <mxCell id="1M9hGgyov5NjB-ZIpMgV-188" style="edgeStyle=orthogonalEdgeStyle;rounded=0;orthogonalLoop=1;jettySize=auto;html=1;entryX=0;entryY=0.5;entryDx=0;entryDy=0;entryPerimeter=0;" parent="WIyWlLk6GJQsqaUBKTNV-1" source="1M9hGgyov5NjB-ZIpMgV-99" target="1M9hGgyov5NjB-ZIpMgV-6" edge="1">
          <mxGeometry relative="1" as="geometry" />
        </mxCell>
        <mxCell id="1M9hGgyov5NjB-ZIpMgV-200" value="Yes" style="text;html=1;align=center;verticalAlign=middle;resizable=0;points=[];autosize=1;strokeColor=none;fillColor=none;" parent="WIyWlLk6GJQsqaUBKTNV-1" vertex="1">
          <mxGeometry x="-30" y="1330" width="40" height="30" as="geometry" />
        </mxCell>
        <mxCell id="1M9hGgyov5NjB-ZIpMgV-203" value="No" style="text;html=1;align=center;verticalAlign=middle;resizable=0;points=[];autosize=1;strokeColor=none;fillColor=none;" parent="WIyWlLk6GJQsqaUBKTNV-1" vertex="1">
          <mxGeometry x="-145" y="1329" width="40" height="30" as="geometry" />
        </mxCell>
        <mxCell id="1M9hGgyov5NjB-ZIpMgV-205" value="Yes" style="text;html=1;align=center;verticalAlign=middle;resizable=0;points=[];autosize=1;strokeColor=none;fillColor=none;" parent="WIyWlLk6GJQsqaUBKTNV-1" vertex="1">
          <mxGeometry x="192.25" y="1142" width="40" height="30" as="geometry" />
        </mxCell>
        <mxCell id="1M9hGgyov5NjB-ZIpMgV-206" value="No" style="text;html=1;align=center;verticalAlign=middle;resizable=0;points=[];autosize=1;strokeColor=none;fillColor=none;" parent="WIyWlLk6GJQsqaUBKTNV-1" vertex="1">
          <mxGeometry x="270" y="1102" width="40" height="30" as="geometry" />
        </mxCell>
        <mxCell id="m38rGPqU60XYRcg4cqw9-6" value="Data To&lt;div&gt;Do List&lt;/div&gt;" style="shape=internalStorage;whiteSpace=wrap;html=1;dx=15;dy=15;rounded=1;arcSize=8;strokeWidth=2;fillColor=#e1d5e7;strokeColor=#9673a6;" vertex="1" parent="WIyWlLk6GJQsqaUBKTNV-1">
          <mxGeometry x="185" y="700" width="90" height="70" as="geometry" />
        </mxCell>
        <mxCell id="m38rGPqU60XYRcg4cqw9-7" value="Data To&lt;div&gt;Do List&lt;/div&gt;" style="shape=internalStorage;whiteSpace=wrap;html=1;dx=15;dy=15;rounded=1;arcSize=8;strokeWidth=2;fillColor=#e1d5e7;strokeColor=#9673a6;" vertex="1" parent="WIyWlLk6GJQsqaUBKTNV-1">
          <mxGeometry x="-115" y="700" width="90" height="70" as="geometry" />
        </mxCell>
        <mxCell id="m38rGPqU60XYRcg4cqw9-9" style="edgeStyle=orthogonalEdgeStyle;rounded=0;orthogonalLoop=1;jettySize=auto;html=1;entryX=0.5;entryY=0;entryDx=0;entryDy=0;entryPerimeter=0;" edge="1" parent="WIyWlLk6GJQsqaUBKTNV-1" source="m38rGPqU60XYRcg4cqw9-6" target="1M9hGgyov5NjB-ZIpMgV-158">
          <mxGeometry relative="1" as="geometry" />
        </mxCell>
        <mxCell id="m38rGPqU60XYRcg4cqw9-10" style="edgeStyle=orthogonalEdgeStyle;rounded=0;orthogonalLoop=1;jettySize=auto;html=1;entryX=0.5;entryY=0;entryDx=0;entryDy=0;entryPerimeter=0;" edge="1" parent="WIyWlLk6GJQsqaUBKTNV-1" source="m38rGPqU60XYRcg4cqw9-7" target="1M9hGgyov5NjB-ZIpMgV-54">
          <mxGeometry relative="1" as="geometry" />
        </mxCell>
        <mxCell id="m38rGPqU60XYRcg4cqw9-12" value="Yes" style="text;html=1;align=center;verticalAlign=middle;resizable=0;points=[];autosize=1;strokeColor=none;fillColor=none;" vertex="1" parent="WIyWlLk6GJQsqaUBKTNV-1">
          <mxGeometry x="185" y="570" width="40" height="30" as="geometry" />
        </mxCell>
      </root>
    </mxGraphModel>
  </diagram>
</mxfile>
